<svg width="24" height="24" viewBox="0 0 24 24" fill="none" xmlns="http://www.w3.org/2000/svg">
<path d="M6 21.75C8.07107 21.75 9.75 20.0711 9.75 18C9.75 15.9289 8.07107 14.25 6 14.25C3.92893 14.25 2.25 15.9289 2.25 18C2.25 20.0711 3.92893 21.75 6 21.75Z" fill="black"/>
<path d="M18 21.75C20.0711 21.75 21.75 20.0711 21.75 18C21.75 15.9289 20.0711 14.25 18 14.25C15.9289 14.25 14.25 15.9289 14.25 18C14.25 20.0711 15.9289 21.75 18 21.75Z" fill="black"/>
<path d="M7.4 2.28C6.61 2.17 5.8 2.4 5.2 2.93C4.61 3.44 4.27 4.17 4.25 4.94L2.89 13.8C3.76 13.15 4.83 12.75 6 12.75C7.47 12.75 8.8 13.36 9.75 14.34V5.15C9.75 3.7 8.74 2.46 7.4 2.27V2.28Z" fill="black"/>
<path d="M21.11 13.8L19.75 4.94C19.73 4.17 19.39 3.44 18.8 2.93C18.2 2.41 17.39 2.17 16.6 2.28C15.26 2.47 14.25 3.71 14.25 5.16V14.34C15.2 13.36 16.53 12.75 18 12.75C19.17 12.75 20.24 13.15 21.11 13.8Z" fill="black"/>
<path d="M11.25 6.58V14.08C11.48 14.04 11.73 14.01 12 14.01C12.27 14.01 12.52 14.04 12.75 14.08V6.58C12.51 6.53 12.26 6.5 12 6.5C11.74 6.5 11.49 6.53 11.25 6.58Z" fill="black"/>
</svg>
